<svg width="16" height="16" viewBox="0 0 16 16" fill="none" xmlns="http://www.w3.org/2000/svg">
<g clip-path="url(#clip0_81_688)">
<path d="M7.90409 5.24456L10.1872 7.43376L10.198 7.31909C10.198 6.16888 9.22322 5.23413 8.02368 5.23413L7.90409 5.24456Z" fill="#ABABAB"/>
<path d="M8.0237 3.84427C10.0241 3.84427 11.6476 5.40105 11.6476 7.31921C11.6476 7.76747 11.5534 8.19489 11.3904 8.58755L13.5104 10.6204C14.6048 9.7447 15.4673 8.61188 16 7.31921C14.7425 4.26823 11.6513 2.10681 8.02373 2.10681C7.00901 2.10681 6.03782 2.28055 5.13546 2.59329L6.701 4.09098C7.11046 3.93809 7.55621 3.84427 8.0237 3.84427Z" fill="#ABABAB"/>
<path d="M0.775802 1.95044L2.42832 3.53501L2.75811 3.85124C1.56221 4.74777 0.61636 5.93968 0.0510254 7.31921C1.30492 10.3702 4.39975 12.5316 8.0237 12.5316C9.14713 12.5316 10.2198 12.3231 11.2019 11.9443L11.51 12.2397L13.6227 14.2691L14.5468 13.3864L1.69991 1.06433L0.775802 1.95044ZM4.7839 5.79025L5.9037 6.864C5.87108 7.01344 5.84934 7.16284 5.84934 7.31921C5.84934 8.46942 6.82417 9.40417 8.0237 9.40417C8.18678 9.40417 8.34262 9.38332 8.49482 9.35204L9.61462 10.4258C9.13263 10.6551 8.59631 10.7941 8.0237 10.7941C6.02329 10.7941 4.39975 9.23737 4.39975 7.31921C4.39975 6.77018 4.54472 6.25588 4.7839 5.79025Z" fill="#ABABAB"/>
</g>
<defs>
<clipPath id="clip0_81_688">
<rect width="15.949" height="15.2932" fill="white" transform="translate(0.0510254 0.0201416)"/>
</clipPath>
</defs>
</svg>
