<svg width="144" height="144" viewBox="0 0 144 144" fill="none" xmlns="http://www.w3.org/2000/svg">
<path d="M135.498 143.219C139.927 143.219 143.541 139.625 143.292 135.203C142.392 119.216 138.804 103.474 132.662 88.6447C125.495 71.3426 114.99 55.6215 101.748 42.379C88.5055 29.1366 72.7844 18.6321 55.4823 11.4653C40.6531 5.32285 24.9114 1.73531 8.9238 0.835295C4.50169 0.586355 0.908279 4.20036 0.908279 8.62947V48.2164C0.908279 52.6455 4.50632 56.1977 8.91663 56.6055C17.5936 57.4078 26.1164 59.5109 34.1951 62.8572C44.7483 67.2285 54.3372 73.6356 62.4143 81.7127C70.4914 89.7898 76.8985 99.3787 81.2698 109.932C84.6161 118.011 86.7192 126.533 87.5215 135.21C87.9293 139.621 91.4814 143.219 95.9106 143.219H135.498Z" fill="#2FCE65"/>
</svg>
