<svg width="143" height="202" viewBox="0 0 143 202" fill="none" xmlns="http://www.w3.org/2000/svg">
<path d="M21.5046 1.54645C17.5028 -0.351448 12.6975 1.34686 11.0275 5.44907C3.02784 25.0999 -0.4992 46.3221 0.747161 67.5697C2.15033 91.4903 9.55828 114.672 22.2869 134.973C35.0155 155.275 52.6544 172.042 73.5746 183.725C92.1569 194.104 112.796 200.174 133.969 201.534C138.389 201.818 142.011 198.233 142.046 193.804L142.359 154.218C142.395 149.789 138.825 146.209 134.418 145.766C122.599 144.579 111.118 140.98 100.698 135.16C87.9381 128.034 77.1795 117.807 69.4158 105.424C61.6521 93.0417 57.1337 78.9024 56.2779 64.3123C55.579 52.3977 57.3409 40.4961 61.4212 29.3403C62.9426 25.1807 61.2749 20.4076 57.273 18.5097L21.5046 1.54645Z" fill="#FE8572"/>
</svg>
