<svg width="16" height="16" viewBox="0 0 16 16" fill="none" xmlns="http://www.w3.org/2000/svg">
<path d="M2.41432 5.03572L2.41431 5.03574L2.41712 5.03849L7.76712 10.2635L8.00114 10.492L8.23406 10.2624L13.5841 4.98738L13.5841 4.98738L13.5857 4.98572C13.6806 4.89089 13.8195 4.8909 13.9143 4.98572C14.0089 5.08027 14.0091 5.21867 13.9152 5.31348C13.9149 5.31376 13.9146 5.31404 13.9143 5.31432L8.1664 10.9623L8.16639 10.9622L8.16432 10.9643C8.06801 11.0606 8.02315 11.0667 8.00002 11.0667C7.9411 11.0667 7.89005 11.0522 7.82028 10.9991L2.0849 5.36348C1.9909 5.26868 1.99118 5.13027 2.08573 5.03572C2.18055 4.9409 2.3195 4.9409 2.41432 5.03572Z" fill="#637381" stroke="#637381" stroke-width="0.666667"/>
</svg>
