<svg width="16" height="16" viewBox="0 0 16 16" fill="none" xmlns="http://www.w3.org/2000/svg">
<path d="M2.41428 5.03551L2.41426 5.03552L2.41708 5.03828L7.76708 10.2633L8.00109 10.4918L8.23401 10.2622L13.584 4.98716L13.584 4.98717L13.5857 4.98551C13.6805 4.89068 13.8195 4.89068 13.9143 4.98551C14.0088 5.08005 14.0091 5.21846 13.9151 5.31326C13.9148 5.31354 13.9146 5.31382 13.9143 5.3141L8.16635 10.962L8.16634 10.962L8.16428 10.9641C8.06797 11.0604 8.02311 11.0665 7.99998 11.0665C7.94106 11.0665 7.89001 11.052 7.82023 10.9989L2.08485 5.36327C1.99086 5.26846 1.99113 5.13005 2.08568 5.03551C2.18051 4.94068 2.31945 4.94068 2.41428 5.03551Z" fill="#637381" stroke="#637381" stroke-width="0.666667"/>
</svg>
