<svg width="66" height="155" viewBox="0 0 66 155" fill="none" xmlns="http://www.w3.org/2000/svg">
<path d="M19.1182 154.055C32.3904 145.886 43.4861 134.973 51.5539 122.152C59.6217 109.332 64.4471 94.9456 65.6599 80.097C66.8727 65.2484 64.4405 50.3323 58.5501 36.4933C52.6597 22.6543 43.4676 10.2603 31.6792 0.262383L8.88555 23.8902C16.8197 30.6193 23.0064 38.961 26.9709 48.2753C30.9354 57.5896 32.5723 67.6288 31.7561 77.6226C30.9399 87.6164 27.6921 97.2991 22.2621 105.928C16.8321 114.556 9.36421 121.902 0.431421 127.4L19.1182 154.055Z" fill="#074A58" fill-opacity="0.86"/>
<path d="M19.1182 154.055C32.3904 145.886 43.4861 134.973 51.5539 122.152C59.6217 109.332 64.4471 94.9456 65.6599 80.097C66.8727 65.2484 64.4405 50.3323 58.5501 36.4933C52.6597 22.6543 43.4676 10.2603 31.6792 0.262383L8.88555 23.8902C16.8197 30.6193 23.0064 38.961 26.9709 48.2753C30.9354 57.5896 32.5723 67.6288 31.7561 77.6226C30.9399 87.6164 27.6921 97.2991 22.2621 105.928C16.8321 114.556 9.36421 121.902 0.431421 127.4L19.1182 154.055Z" fill="#074A58" fill-opacity="0.86"/>
<path d="M19.1182 154.055C32.3904 145.886 43.4861 134.973 51.5539 122.152C59.6217 109.332 64.4471 94.9456 65.6599 80.097C66.8727 65.2484 64.4405 50.3323 58.5501 36.4933C52.6597 22.6543 43.4676 10.2603 31.6792 0.262383L8.88555 23.8902C16.8197 30.6193 23.0064 38.961 26.9709 48.2753C30.9354 57.5896 32.5723 67.6288 31.7561 77.6226C30.9399 87.6164 27.6921 97.2991 22.2621 105.928C16.8321 114.556 9.36421 121.902 0.431421 127.4L19.1182 154.055Z" fill="#074A58" fill-opacity="0.86"/>
<path d="M19.1182 154.055C32.3904 145.886 43.4861 134.973 51.5539 122.152C59.6217 109.332 64.4471 94.9456 65.6599 80.097C66.8727 65.2484 64.4405 50.3323 58.5501 36.4933C52.6597 22.6543 43.4676 10.2603 31.6792 0.262383L8.88555 23.8902C16.8197 30.6193 23.0064 38.961 26.9709 48.2753C30.9354 57.5896 32.5723 67.6288 31.7561 77.6226C30.9399 87.6164 27.6921 97.2991 22.2621 105.928C16.8321 114.556 9.36421 121.902 0.431421 127.4L19.1182 154.055Z" fill="#074A58" fill-opacity="0.86"/>
</svg>
