<svg width="80" height="44" viewBox="0 0 80 44" fill="none" xmlns="http://www.w3.org/2000/svg">
<path d="M0.804522 41.079C14.0867 44.2291 27.8651 44.759 41.353 42.6384C54.8409 40.5178 67.7743 35.7882 79.4146 28.7198L61.7544 0.231426C53.8932 5.00505 45.1588 8.19912 36.0498 9.63126C26.9408 11.0634 17.6356 10.7055 8.66563 8.57815L0.804522 41.079Z" fill="#074A58" fill-opacity="0.86"/>
<path d="M0.804522 41.079C14.0867 44.2291 27.8651 44.759 41.353 42.6384C54.8409 40.5178 67.7743 35.7882 79.4146 28.7198L61.7544 0.231426C53.8932 5.00505 45.1588 8.19912 36.0498 9.63126C26.9408 11.0634 17.6356 10.7055 8.66563 8.57815L0.804522 41.079Z" fill="#074A58" fill-opacity="0.86"/>
<path d="M0.804522 41.079C14.0867 44.2291 27.8651 44.759 41.353 42.6384C54.8409 40.5178 67.7743 35.7882 79.4146 28.7198L61.7544 0.231426C53.8932 5.00505 45.1588 8.19912 36.0498 9.63126C26.9408 11.0634 17.6356 10.7055 8.66563 8.57815L0.804522 41.079Z" fill="#074A58" fill-opacity="0.86"/>
<path d="M0.804522 41.079C14.0867 44.2291 27.8651 44.759 41.353 42.6384C54.8409 40.5178 67.7743 35.7882 79.4146 28.7198L61.7544 0.231426C53.8932 5.00505 45.1588 8.19912 36.0498 9.63126C26.9408 11.0634 17.6356 10.7055 8.66563 8.57815L0.804522 41.079Z" fill="#60F578" fill-opacity="0.77"/>
</svg>
