<svg width="16" height="16" viewBox="0 0 16 16" fill="none" xmlns="http://www.w3.org/2000/svg">
<g clip-path="url(#clip0_16_715)">
<path d="M6.25832 7.99999C6.25832 7.03408 7.03408 6.25832 7.99999 6.25832C8.96589 6.25832 9.74165 7.03408 9.74165 7.99999C9.74165 8.96589 8.96589 9.74165 7.99999 9.74165C7.03408 9.74165 6.25832 8.96589 6.25832 7.99999ZM6.71665 7.99999C6.71665 8.70908 7.29089 9.28332 7.99999 9.28332C8.70908 9.28332 9.28332 8.70908 9.28332 7.99999C9.28332 7.29089 8.70908 6.71665 7.99999 6.71665C7.29089 6.71665 6.71665 7.29089 6.71665 7.99999Z" fill="#6B7280" stroke="#6B7280" stroke-width="0.666667"/>
<path d="M14.6504 8.43789L14.6631 8.41927L14.6731 8.39911C14.7951 8.15526 14.7951 7.84481 14.6731 7.60097L14.6631 7.5808L14.6504 7.56218C13.7218 6.2012 12.7766 5.21568 11.6953 4.57289C10.6095 3.92737 9.41068 3.6417 8 3.6417C6.58932 3.6417 5.39046 3.92737 4.30466 4.57289C3.22345 5.21568 2.27816 6.2012 1.34965 7.56218L1.34963 7.56217L1.34765 7.56514C1.17301 7.8271 1.17301 8.17297 1.34765 8.43494L1.34763 8.43495L1.34965 8.43789C2.27816 9.79887 3.22345 10.7844 4.30466 11.4272C5.39046 12.0727 6.58932 12.3584 8 12.3584C9.41068 12.3584 10.6095 12.0727 11.6953 11.4272C12.7766 10.7844 13.7218 9.79887 14.6504 8.43789ZM8 3.18337C9.88299 3.18337 11.2854 3.70064 12.3883 4.46467C13.4973 5.23287 14.3195 6.26152 15.0228 7.31012C15.2955 7.7194 15.3009 8.24954 15.0213 8.69213C14.318 9.72806 13.4961 10.7557 12.3878 11.5264C11.2844 12.2937 9.88211 12.8167 8 12.8167C6.11789 12.8167 4.71558 12.2937 3.61219 11.5264C2.50285 10.7549 1.68039 9.72604 0.976641 8.68907C0.702075 8.27627 0.702231 7.72294 0.977108 7.3103C1.68036 6.26164 2.50268 5.23291 3.61169 4.46467C4.71463 3.70064 6.11701 3.18337 8 3.18337Z" fill="#6B7280" stroke="#6B7280" stroke-width="0.666667"/>
</g>
<defs>
<clipPath id="clip0_16_715">
<rect width="16" height="16" fill="white"/>
</clipPath>
</defs>
</svg>
