<svg width="20" height="19" viewBox="0 0 20 19" fill="none" xmlns="http://www.w3.org/2000/svg">
<g clip-path="url(#clip0_81_672)">
<path d="M1.98057 3.13647H17.9429C18.8814 3.13647 19.645 3.86866 19.645 4.76863V14.2272C19.645 15.1272 18.8814 15.8594 17.9429 15.8594H1.98057C1.04201 15.8594 0.278429 15.1272 0.278429 14.2272V4.76863C0.278429 3.86866 1.04201 3.13647 1.98057 3.13647ZM2.20272 4.22458L2.4299 4.40596L9.28639 9.88061C9.67773 10.193 10.2458 10.193 10.6371 9.88061L17.4936 4.40596L17.7207 4.22458H2.20272ZM18.5103 5.01011L12.9238 9.47072L18.5103 13.0358V5.01011ZM1.98057 14.7713H17.9429C18.217 14.7713 18.4463 14.5838 18.4989 14.3356L12.0139 10.1972L11.3632 10.7168C10.9571 11.041 10.4594 11.203 9.96169 11.203C9.46398 11.203 8.96627 11.041 8.56022 10.7168L7.90947 10.1972L1.42454 14.3356C1.47711 14.5839 1.70641 14.7713 1.98057 14.7713ZM1.41319 13.0358L6.99969 9.47075L1.41319 5.01011V13.0358Z" fill="#000842"/>
</g>
<defs>
<clipPath id="clip0_81_672">
<rect width="19.3666" height="18.5703" fill="white" transform="matrix(-1 0 0 1 19.645 0.212769)"/>
</clipPath>
</defs>
</svg>
