<svg width="20" height="20" viewBox="0 0 20 20" fill="none" xmlns="http://www.w3.org/2000/svg">
<g clip-path="url(#clip0_81_681)">
<path d="M14.8134 8.36321V5.42236C14.8216 4.09169 14.2673 2.8122 13.2778 1.87916C12.3212 0.965805 11.069 0.46582 9.74281 0.46582C9.72229 0.46582 9.69765 0.46582 9.67712 0.46582C6.84829 0.469757 4.5491 2.69016 4.5491 5.42236V8.36321C3.48162 8.48525 2.70154 9.34349 2.70154 10.3828V16.9889C2.70154 18.1109 3.63764 19.0361 4.80776 19.0361H14.5588C15.7289 19.0361 16.665 18.1109 16.665 16.9889V10.3828C16.6609 9.34743 15.8808 8.48525 14.8134 8.36321ZM5.36614 5.42236H5.37024C5.37024 3.12322 7.30403 1.24139 9.68123 1.24139H9.68533C10.8144 1.23745 11.8983 1.66657 12.6989 2.43033C13.5324 3.22164 13.9963 4.30035 13.9881 5.42236V8.36715H13.0849V5.42236C13.0931 4.52868 12.7236 3.67044 12.0625 3.04054C11.4385 2.44214 10.5927 2.10356 9.70997 2.10356H9.68533C7.79671 2.10356 6.26939 3.59171 6.26939 5.41842V8.36715H5.36614V5.42236ZM12.2678 5.42236V8.36715H7.09464V5.42236C7.09464 4.0287 8.25244 2.89488 9.68944 2.89488H9.71407C10.3792 2.89488 11.0197 3.15077 11.4918 3.60352C11.9927 4.08382 12.276 4.74128 12.2678 5.42236ZM15.8808 17.0007C15.8808 17.6897 15.2978 18.2487 14.5793 18.2487H4.82418C4.10569 18.2487 3.52268 17.6897 3.52268 17.0007V10.4025C3.52268 9.71356 4.10569 9.15452 4.82418 9.15452H14.5793C15.2978 9.15452 15.8808 9.71356 15.8808 10.4025V17.0007Z" fill="#000842"/>
<path d="M11.1018 13.4576C10.9212 12.8474 10.3423 12.4301 9.68126 12.4301C8.86422 12.4301 8.1991 13.0639 8.1991 13.8513C8.1991 14.4851 8.6343 15.0402 9.27069 15.2134V16.3158C9.27069 16.5323 9.45544 16.7094 9.68126 16.7094C9.90707 16.7094 10.0918 16.5323 10.0918 16.3158V15.2134C10.876 14.9969 11.3317 14.2095 11.1018 13.4576ZM9.68126 14.4812C9.31585 14.4812 9.02024 14.1977 9.02024 13.8473C9.02024 13.4969 9.31585 13.2135 9.68126 13.2135C10.0467 13.2135 10.3423 13.4969 10.3423 13.8473C10.3423 14.1977 10.0467 14.4812 9.68126 14.4812Z" fill="#000842"/>
</g>
<defs>
<clipPath id="clip0_81_681">
<rect width="19.3666" height="18.5703" fill="white" transform="translate(0 0.46582)"/>
</clipPath>
</defs>
</svg>
