<svg width="168" height="24" viewBox="0 0 168 24" fill="none" xmlns="http://www.w3.org/2000/svg">
<path d="M16.0352 13.125L16.5273 9.89062H13.3984V7.78125C13.3984 6.86719 13.8203 6.02344 15.2266 6.02344H16.668V3.24609C16.668 3.24609 15.3672 3 14.1367 3C11.5703 3 9.88281 4.58203 9.88281 7.39453V9.89062H7V13.125H9.88281V21H13.3984V13.125H16.0352Z" fill="#111827"/>
<path d="M67.1367 8.62109C67.8398 8.09375 68.4727 7.46094 68.9648 6.72266C68.332 7.00391 67.5938 7.21484 66.8555 7.28516C67.6289 6.82812 68.1914 6.125 68.4727 5.24609C67.7695 5.66797 66.9609 5.98438 66.1523 6.16016C65.4492 5.42188 64.5 5 63.4453 5C61.4062 5 59.7539 6.65234 59.7539 8.69141C59.7539 8.97266 59.7891 9.25391 59.8594 9.53516C56.8008 9.35938 54.0586 7.88281 52.2305 5.66797C51.9141 6.19531 51.7383 6.82812 51.7383 7.53125C51.7383 8.79688 52.3711 9.92188 53.3906 10.5898C52.793 10.5547 52.1953 10.4141 51.7031 10.1328V10.168C51.7031 11.9609 52.9688 13.4375 54.6562 13.7891C54.375 13.8594 54.0234 13.9297 53.707 13.9297C53.4609 13.9297 53.25 13.8945 53.0039 13.8594C53.4609 15.3359 54.832 16.3906 56.4492 16.4258C55.1836 17.4102 53.6016 18.0078 51.8789 18.0078C51.5625 18.0078 51.2812 17.9727 51 17.9375C52.6172 18.9922 54.5508 19.5898 56.6602 19.5898C63.4453 19.5898 67.1367 14 67.1367 9.11328C67.1367 8.9375 67.1367 8.79688 67.1367 8.62109Z" fill="#111827"/>
<path d="M104.801 16.7109C104.801 16.6406 104.73 16.5703 104.625 16.5703C104.52 16.5703 104.449 16.6406 104.449 16.7109C104.449 16.7812 104.52 16.8516 104.625 16.8164C104.73 16.8164 104.801 16.7812 104.801 16.7109ZM103.711 16.5352C103.711 16.6055 103.781 16.7109 103.887 16.7109C103.957 16.7461 104.062 16.7109 104.098 16.6406C104.098 16.5703 104.062 16.5 103.957 16.4648C103.852 16.4297 103.746 16.4648 103.711 16.5352ZM105.293 16.5C105.188 16.5 105.117 16.5703 105.117 16.6758C105.117 16.7461 105.223 16.7812 105.328 16.7461C105.434 16.7109 105.504 16.6758 105.469 16.6055C105.469 16.5352 105.363 16.4648 105.293 16.5ZM107.578 3C102.727 3 99 6.72656 99 11.5781C99 15.4805 101.426 18.8203 104.941 20.0156C105.398 20.0859 105.539 19.8047 105.539 19.5938C105.539 19.3477 105.539 18.1523 105.539 17.4141C105.539 17.4141 103.078 17.9414 102.551 16.3594C102.551 16.3594 102.164 15.3398 101.602 15.0938C101.602 15.0938 100.793 14.5312 101.637 14.5312C101.637 14.5312 102.516 14.6016 103.008 15.4453C103.781 16.8164 105.047 16.4297 105.574 16.1836C105.645 15.6211 105.855 15.2344 106.137 14.9883C104.168 14.7773 102.164 14.4961 102.164 11.1211C102.164 10.1367 102.445 9.67969 103.008 9.04688C102.902 8.80078 102.621 7.88672 103.113 6.65625C103.816 6.44531 105.539 7.60547 105.539 7.60547C106.242 7.39453 106.98 7.32422 107.719 7.32422C108.492 7.32422 109.23 7.39453 109.934 7.60547C109.934 7.60547 111.621 6.41016 112.359 6.65625C112.852 7.88672 112.535 8.80078 112.465 9.04688C113.027 9.67969 113.379 10.1367 113.379 11.1211C113.379 14.4961 111.305 14.7773 109.336 14.9883C109.652 15.2695 109.934 15.7969 109.934 16.6406C109.934 17.8008 109.898 19.2773 109.898 19.5586C109.898 19.8047 110.074 20.0859 110.531 19.9805C114.047 18.8203 116.438 15.4805 116.438 11.5781C116.438 6.72656 112.465 3 107.578 3ZM102.41 15.1289C102.34 15.1641 102.375 15.2695 102.41 15.3398C102.48 15.375 102.551 15.4102 102.621 15.375C102.656 15.3398 102.656 15.2344 102.586 15.1641C102.516 15.1289 102.445 15.0938 102.41 15.1289ZM102.023 14.8477C101.988 14.918 102.023 14.9531 102.094 14.9883C102.164 15.0234 102.234 15.0234 102.27 14.9531C102.27 14.918 102.234 14.8828 102.164 14.8477C102.094 14.8125 102.059 14.8125 102.023 14.8477ZM103.148 16.1133C103.113 16.1484 103.113 16.2539 103.219 16.3242C103.289 16.3945 103.395 16.4297 103.43 16.3594C103.465 16.3242 103.465 16.2188 103.395 16.1484C103.324 16.0781 103.219 16.043 103.148 16.1133ZM102.762 15.5859C102.691 15.6211 102.691 15.7266 102.762 15.7969C102.832 15.8672 102.902 15.9023 102.973 15.8672C103.008 15.832 103.008 15.7266 102.973 15.6562C102.902 15.5859 102.832 15.5508 102.762 15.5859Z" fill="#111827"/>
<path d="M155.719 3C150.902 3 147 6.9375 147 11.7188C147 16.5352 150.902 20.4375 155.719 20.4375C160.5 20.4375 164.438 16.5352 164.438 11.7188C164.438 6.9375 160.5 3 155.719 3ZM161.449 7.04297C162.504 8.30859 163.137 9.92578 163.137 11.6836C162.891 11.6133 160.43 11.1211 157.969 11.4375C157.758 10.9453 157.582 10.5234 157.301 9.96094C160.078 8.83594 161.309 7.25391 161.449 7.04297ZM160.641 6.16406C160.5 6.375 159.375 7.88672 156.738 8.87109C155.508 6.62109 154.172 4.79297 153.961 4.51172C156.316 3.94922 158.812 4.54688 160.641 6.16406ZM152.52 5.00391C152.73 5.28516 154.066 7.11328 155.297 9.32812C151.816 10.2422 148.758 10.2422 148.406 10.207C148.898 7.92188 150.445 5.98828 152.52 5.00391ZM148.266 11.7539C148.266 11.6836 148.266 11.6133 148.266 11.5078C148.582 11.543 152.203 11.5781 155.895 10.4531C156.141 10.875 156.316 11.2969 156.527 11.7188C153.82 12.4922 151.359 14.6719 150.164 16.7109C148.969 15.4102 148.266 13.6523 148.266 11.7539ZM151.113 17.625C151.922 16.043 154.031 13.9688 157.02 12.9492C158.074 15.6562 158.496 17.9414 158.602 18.6094C156.211 19.6289 153.328 19.3477 151.113 17.625ZM159.867 17.9062C159.797 17.4844 159.375 15.3047 158.426 12.5977C160.746 12.2461 162.785 12.8438 163.066 12.9141C162.715 14.9883 161.52 16.7812 159.867 17.9062Z" fill="#111827"/>
</svg>
