<svg width="16" height="16" viewBox="0 0 16 16" fill="none" xmlns="http://www.w3.org/2000/svg">
<path d="M8 7.0002C6.125 7.0002 4.625 5.5252 4.625 3.7252C4.625 1.9252 6.125 0.450195 8 0.450195C9.875 0.450195 11.375 1.9252 11.375 3.7252C11.375 5.5252 9.875 7.0002 8 7.0002ZM8 1.5752C6.75 1.5752 5.75 2.5502 5.75 3.7252C5.75 4.9002 6.75 5.8752 8 5.8752C9.25 5.8752 10.25 4.9002 10.25 3.7252C10.25 2.5502 9.25 1.5752 8 1.5752Z" fill="#6B7280"/>
<path d="M12.925 15.5751H3.075C2.575 15.5751 2.175 15.1751 2.175 14.6751V12.4251C2.175 9.9751 4.175 7.9751 6.625 7.9751H9.4C11.85 7.9751 13.85 9.9751 13.85 12.4251V14.6751C13.825 15.1501 13.425 15.5751 12.925 15.5751ZM3.3 14.4501H12.725V12.4251C12.725 10.6001 11.225 9.1001 9.4 9.1001H6.6C4.775 9.1001 3.275 10.6001 3.275 12.4251V14.4501H3.3Z" fill="#6B7280"/>
</svg>
