<svg width="339" height="72" viewBox="0 0 339 72" fill="none" xmlns="http://www.w3.org/2000/svg">
<rect width="339" height="72" rx="15" fill="#2FCE65"/>
<mask id="mask0_184_494" style="mask-type:alpha" maskUnits="userSpaceOnUse" x="0" y="0" width="339" height="72">
<rect width="339" height="72" rx="15" fill="#2FCE65"/>
</mask>
<g mask="url(#mask0_184_494)">
<g opacity="0.2">
<path d="M618.408 71.8936C618.408 82.0542 610.864 91.8551 596.915 100.863C582.989 109.857 562.805 117.976 537.818 124.801C487.852 138.45 418.796 146.898 342.499 146.898C266.202 146.898 197.146 138.45 147.18 124.801C122.193 117.976 102.008 109.857 88.0824 100.863C74.1341 91.8551 66.5895 82.0542 66.5895 71.8936C66.5895 61.733 74.1341 51.9321 88.0824 42.9239C102.008 33.93 122.193 25.8116 147.18 18.9862C197.146 5.33736 266.202 -3.11084 342.499 -3.11084C418.796 -3.11084 487.852 5.33736 537.818 18.9862C562.805 25.8116 582.989 33.93 596.915 42.9239C610.864 51.9321 618.408 61.733 618.408 71.8936Z" stroke="white"/>
<path d="M581.038 71.8935C581.038 80.6447 574.539 89.1029 562.482 96.8898C550.447 104.662 532.999 111.681 511.394 117.583C468.19 129.384 408.477 136.69 342.499 136.69C276.521 136.69 216.808 129.384 173.604 117.583C151.999 111.681 134.551 104.662 122.516 96.8898C110.458 89.1029 103.96 80.6447 103.96 71.8935C103.96 63.1424 110.458 54.6842 122.516 46.8973C134.551 39.1247 151.999 32.1061 173.604 26.2044C216.808 14.4028 276.521 7.09717 342.499 7.09717C408.477 7.09717 468.19 14.4028 511.394 26.2044C532.999 32.1061 550.447 39.1247 562.482 46.8973C574.539 54.6842 581.038 63.1424 581.038 71.8935Z" stroke="white"/>
<path d="M538.514 71.8937C538.514 79.041 533.205 85.9713 523.299 92.3685C513.416 98.7513 499.082 104.518 481.324 109.369C445.816 119.069 396.734 125.074 342.499 125.074C288.264 125.074 239.182 119.069 203.674 109.369C185.916 104.518 171.582 98.7513 161.699 92.3685C151.793 85.9713 146.484 79.041 146.484 71.8937C146.484 64.7464 151.793 57.8161 161.699 51.4189C171.582 45.0361 185.916 39.269 203.674 34.4183C239.182 24.7188 288.264 18.7134 342.499 18.7134C396.734 18.7134 445.816 24.7188 481.324 34.4183C499.082 39.269 513.416 45.0361 523.299 51.4189C533.205 57.8161 538.514 64.7464 538.514 71.8937Z" stroke="white"/>
<path d="M495.989 71.8938C495.989 77.4373 491.87 82.8396 484.117 87.8471C476.385 92.8402 465.165 97.3557 451.255 101.155C423.442 108.753 384.991 113.458 342.499 113.458C300.007 113.458 261.556 108.753 233.743 101.155C219.833 97.3557 208.613 92.8402 200.881 87.8471C193.128 82.8396 189.009 77.4373 189.009 71.8938C189.009 66.3504 193.128 60.948 200.881 55.9405C208.613 50.9474 219.833 46.4319 233.743 42.6322C261.556 35.0349 300.007 30.3296 342.499 30.3296C384.991 30.3296 423.442 35.0349 451.255 42.6322C465.165 46.4319 476.385 50.9474 484.117 55.9405C491.87 60.948 495.989 66.3504 495.989 71.8938Z" stroke="white"/>
<path d="M454.753 71.8934C454.753 75.8816 451.788 79.8024 446.121 83.4622C440.476 87.1077 432.275 90.4097 422.096 93.1901C401.746 98.7491 373.603 102.194 342.499 102.194C311.394 102.194 283.251 98.7491 262.901 93.1901C252.722 90.4097 244.521 87.1077 238.876 83.4622C233.209 79.8024 230.244 75.8816 230.244 71.8934C230.244 67.9052 233.209 63.9845 238.876 60.3246C244.521 56.6791 252.722 53.3772 262.901 50.5968C283.251 45.0378 311.394 41.5933 342.499 41.5933C373.603 41.5933 401.746 45.0378 422.096 50.5968C432.275 53.3772 440.476 56.6791 446.121 60.3246C451.788 63.9845 454.753 67.9052 454.753 71.8934Z" stroke="white"/>
<path d="M417.383 71.8939C417.383 74.4726 415.464 77.0507 411.688 79.4892C407.934 81.9135 402.47 84.1155 395.672 85.9724C382.084 89.6841 363.284 91.986 342.499 91.986C321.714 91.986 302.914 89.6841 289.326 85.9724C282.528 84.1155 277.064 81.9135 273.31 79.4892C269.534 77.0507 267.615 74.4726 267.615 71.8939C267.615 69.3151 269.534 66.7371 273.31 64.2985C277.064 61.8743 282.528 59.6722 289.326 57.8154C302.914 54.1037 321.714 51.8018 342.499 51.8018C363.284 51.8018 382.084 54.1037 395.672 57.8154C402.47 59.6722 407.934 61.8743 411.688 64.2985C415.464 66.7371 417.383 69.3151 417.383 71.8939Z" stroke="white"/>
<path d="M387.484 71.894C387.484 73.3451 386.401 74.8488 384.138 76.3103C381.898 77.7574 378.622 79.0795 374.53 80.1973C366.353 82.431 355.028 83.8188 342.499 83.8188C329.97 83.8188 318.645 82.431 310.468 80.1973C306.376 79.0795 303.1 77.7574 300.86 76.3103C298.597 74.8488 297.514 73.3451 297.514 71.894C297.514 70.4429 298.597 68.9392 300.86 67.4778C303.1 66.0307 306.376 64.7085 310.468 63.5907C318.645 61.357 329.97 59.9692 342.499 59.9692C355.028 59.9692 366.353 61.357 374.53 63.5907C378.622 64.7085 381.898 66.0307 384.138 67.4778C386.401 68.9392 387.484 70.4429 387.484 71.894Z" stroke="white"/>
</g>
</g>
</svg>
